<svg xmlns="http://www.w3.org/2000/svg" viewBox="0 0 128 96" role="img" aria-label="Gold crown">
  <defs>
    <linearGradient id="goldFill" x1="0" y1="0" x2="0" y2="1">
      <stop offset="0%" stop-color="#ffe38a" />
      <stop offset="48%" stop-color="#f6c84b" />
      <stop offset="100%" stop-color="#cc9324" />
    </linearGradient>
    <linearGradient id="goldStroke" x1="0" y1="0" x2="1" y2="1">
      <stop offset="0%" stop-color="#7a4e0a" />
      <stop offset="100%" stop-color="#9b6110" />
    </linearGradient>
    <filter id="softShadow" x="-20%" y="-20%" width="140%" height="140%">
      <feDropShadow dx="0" dy="1.5" stdDeviation="1.2" flood-color="#000" flood-opacity="0.22" />
    </filter>
  </defs>

  <g filter="url(#softShadow)">
    <path
      d="M10 70
         L20 26
         L43 48
         L64 14
         L86 48
         L108 26
         L118 70
         Q102 74 64 74
         Q26 74 10 70 Z"
      fill="url(#goldFill)"
      stroke="url(#goldStroke)"
      stroke-width="3.2"
      stroke-linejoin="round" />

    <path
      d="M10 70
         Q24 76 64 76
         Q104 76 118 70
         L114 86
         Q98 90 64 90
         Q30 90 14 86 Z"
      fill="#d39b2d"
      stroke="url(#goldStroke)"
      stroke-width="3"
      stroke-linejoin="round" />

    <circle cx="20" cy="26" r="4.6" fill="#fce7a1" stroke="#8a5a10" stroke-width="2.1" />
    <circle cx="64" cy="14" r="5.4" fill="#fff0b7" stroke="#8a5a10" stroke-width="2.1" />
    <circle cx="108" cy="26" r="4.6" fill="#fce7a1" stroke="#8a5a10" stroke-width="2.1" />

    <path d="M29 64 Q64 60 99 64" fill="none" stroke="#8f5c10" stroke-width="2" stroke-linecap="round" opacity="0.7" />
    <path d="M24 82 Q64 85 104 82" fill="none" stroke="#8f5c10" stroke-width="1.8" stroke-linecap="round" opacity="0.65" />
  </g>
</svg>
